%TF.GenerationSoftware,KiCad,Pcbnew,(6.0.9)*%
%TF.CreationDate,2023-06-24T22:02:27+12:00*%
%TF.ProjectId,lupa,6c757061-2e6b-4696-9361-645f70636258,rev?*%
%TF.SameCoordinates,Original*%
%TF.FileFunction,Soldermask,Top*%
%TF.FilePolarity,Negative*%
%FSLAX46Y46*%
G04 Gerber Fmt 4.6, Leading zero omitted, Abs format (unit mm)*
G04 Created by KiCad (PCBNEW (6.0.9)) date 2023-06-24 22:02:27*
%MOMM*%
%LPD*%
G01*
G04 APERTURE LIST*
G04 Aperture macros list*
%AMRoundRect*
0 Rectangle with rounded corners*
0 $1 Rounding radius*
0 $2 $3 $4 $5 $6 $7 $8 $9 X,Y pos of 4 corners*
0 Add a 4 corners polygon primitive as box body*
4,1,4,$2,$3,$4,$5,$6,$7,$8,$9,$2,$3,0*
0 Add four circle primitives for the rounded corners*
1,1,$1+$1,$2,$3*
1,1,$1+$1,$4,$5*
1,1,$1+$1,$6,$7*
1,1,$1+$1,$8,$9*
0 Add four rect primitives between the rounded corners*
20,1,$1+$1,$2,$3,$4,$5,0*
20,1,$1+$1,$4,$5,$6,$7,0*
20,1,$1+$1,$6,$7,$8,$9,0*
20,1,$1+$1,$8,$9,$2,$3,0*%
G04 Aperture macros list end*
%ADD10C,0.264583*%
%ADD11C,3.000000*%
%ADD12RoundRect,0.225000X-0.225000X-0.250000X0.225000X-0.250000X0.225000X0.250000X-0.225000X0.250000X0*%
%ADD13RoundRect,0.250000X-0.600000X-0.750000X0.600000X-0.750000X0.600000X0.750000X-0.600000X0.750000X0*%
%ADD14O,1.700000X2.000000*%
%ADD15R,1.000000X2.510000*%
%ADD16R,2.000000X0.900000*%
%ADD17R,0.900000X2.000000*%
%ADD18R,5.000000X5.000000*%
%ADD19RoundRect,0.200000X0.275000X-0.200000X0.275000X0.200000X-0.275000X0.200000X-0.275000X-0.200000X0*%
%ADD20O,1.700000X1.950000*%
%ADD21RoundRect,0.250000X-0.600000X-0.725000X0.600000X-0.725000X0.600000X0.725000X-0.600000X0.725000X0*%
%ADD22C,6.400000*%
%ADD23C,2.400000*%
%ADD24O,2.400000X2.400000*%
%ADD25RoundRect,0.200000X-0.200000X-0.275000X0.200000X-0.275000X0.200000X0.275000X-0.200000X0.275000X0*%
%ADD26RoundRect,0.225000X0.225000X0.250000X-0.225000X0.250000X-0.225000X-0.250000X0.225000X-0.250000X0*%
%ADD27RoundRect,0.250000X-0.450000X0.262500X-0.450000X-0.262500X0.450000X-0.262500X0.450000X0.262500X0*%
%ADD28RoundRect,0.249999X-0.675001X-0.450001X0.675001X-0.450001X0.675001X0.450001X-0.675001X0.450001X0*%
%ADD29R,2.300000X2.500000*%
%ADD30R,3.000000X3.000000*%
%ADD31RoundRect,0.200000X0.200000X0.275000X-0.200000X0.275000X-0.200000X-0.275000X0.200000X-0.275000X0*%
%ADD32RoundRect,0.375000X-1.125000X-2.000000X1.125000X-2.000000X1.125000X2.000000X-1.125000X2.000000X0*%
%ADD33RoundRect,0.750000X0.750000X-0.750000X0.750000X0.750000X-0.750000X0.750000X-0.750000X-0.750000X0*%
%ADD34RoundRect,0.200000X-0.275000X0.200000X-0.275000X-0.200000X0.275000X-0.200000X0.275000X0.200000X0*%
%ADD35R,1.600000X1.600000*%
%ADD36C,1.600000*%
%ADD37R,2.400000X1.500000*%
%ADD38RoundRect,0.150000X-0.587500X-0.150000X0.587500X-0.150000X0.587500X0.150000X-0.587500X0.150000X0*%
%ADD39R,2.000000X2.000000*%
%ADD40C,2.000000*%
%ADD41R,1.700000X1.700000*%
%ADD42O,1.700000X1.700000*%
G04 APERTURE END LIST*
%TO.C,LOGO2*%
G36*
X127405000Y-48133000D02*
G01*
X127640000Y-48218000D01*
X127842000Y-48326000D01*
X128014000Y-48453000D01*
X128156000Y-48600000D01*
X128272000Y-48771000D01*
X128363000Y-48966000D01*
X128426000Y-49194000D01*
X128435000Y-49398000D01*
X128392000Y-49566000D01*
X128298000Y-49688000D01*
X128152000Y-49747000D01*
X127932000Y-49774000D01*
X127676000Y-49770000D01*
X127425000Y-49736000D01*
X127216000Y-49671000D01*
X127065000Y-49585000D01*
X126910000Y-49466000D01*
X126763000Y-49325000D01*
X126637000Y-49176000D01*
X126544000Y-49031000D01*
X126494000Y-48868000D01*
X126485000Y-48688000D01*
X126521000Y-48534000D01*
X126580000Y-48437000D01*
X126662000Y-48337000D01*
X126822000Y-48204000D01*
X126998000Y-48126000D01*
X127192000Y-48103000D01*
X127405000Y-48133000D01*
G37*
D10*
X127405000Y-48133000D02*
X127640000Y-48218000D01*
X127842000Y-48326000D01*
X128014000Y-48453000D01*
X128156000Y-48600000D01*
X128272000Y-48771000D01*
X128363000Y-48966000D01*
X128426000Y-49194000D01*
X128435000Y-49398000D01*
X128392000Y-49566000D01*
X128298000Y-49688000D01*
X128152000Y-49747000D01*
X127932000Y-49774000D01*
X127676000Y-49770000D01*
X127425000Y-49736000D01*
X127216000Y-49671000D01*
X127065000Y-49585000D01*
X126910000Y-49466000D01*
X126763000Y-49325000D01*
X126637000Y-49176000D01*
X126544000Y-49031000D01*
X126494000Y-48868000D01*
X126485000Y-48688000D01*
X126521000Y-48534000D01*
X126580000Y-48437000D01*
X126662000Y-48337000D01*
X126822000Y-48204000D01*
X126998000Y-48126000D01*
X127192000Y-48103000D01*
X127405000Y-48133000D01*
G36*
X131290000Y-48042000D02*
G01*
X131402000Y-48239000D01*
X131492000Y-48460000D01*
X131516000Y-48593000D01*
X131447000Y-48619000D01*
X131216000Y-48505000D01*
X130988000Y-48369000D01*
X130940000Y-48278000D01*
X131035000Y-48160000D01*
X131128000Y-47986000D01*
X131171000Y-47905000D01*
X131290000Y-48042000D01*
G37*
G36*
X128977000Y-45056000D02*
G01*
X129178000Y-45109000D01*
X129350000Y-45186000D01*
X129521000Y-45307000D01*
X129690000Y-45464000D01*
X129839000Y-45634000D01*
X129948000Y-45797000D01*
X129998000Y-45929000D01*
X129977000Y-46083000D01*
X129881000Y-46231000D01*
X129719000Y-46364000D01*
X129499000Y-46471000D01*
X129280000Y-46535000D01*
X129066000Y-46558000D01*
X128851000Y-46540000D01*
X128630000Y-46481000D01*
X128396000Y-46380000D01*
X128183000Y-46261000D01*
X128066000Y-46145000D01*
X127966000Y-45978000D01*
X127914000Y-45794000D01*
X127909000Y-45601000D01*
X127953000Y-45406000D01*
X128014000Y-45279000D01*
X128118000Y-45178000D01*
X128235000Y-45104000D01*
X128354000Y-45055000D01*
X128548000Y-45027000D01*
X128761000Y-45027000D01*
X128977000Y-45056000D01*
G37*
X128977000Y-45056000D02*
X129178000Y-45109000D01*
X129350000Y-45186000D01*
X129521000Y-45307000D01*
X129690000Y-45464000D01*
X129839000Y-45634000D01*
X129948000Y-45797000D01*
X129998000Y-45929000D01*
X129977000Y-46083000D01*
X129881000Y-46231000D01*
X129719000Y-46364000D01*
X129499000Y-46471000D01*
X129280000Y-46535000D01*
X129066000Y-46558000D01*
X128851000Y-46540000D01*
X128630000Y-46481000D01*
X128396000Y-46380000D01*
X128183000Y-46261000D01*
X128066000Y-46145000D01*
X127966000Y-45978000D01*
X127914000Y-45794000D01*
X127909000Y-45601000D01*
X127953000Y-45406000D01*
X128014000Y-45279000D01*
X128118000Y-45178000D01*
X128235000Y-45104000D01*
X128354000Y-45055000D01*
X128548000Y-45027000D01*
X128761000Y-45027000D01*
X128977000Y-45056000D01*
G36*
X130843000Y-48864000D02*
G01*
X131045000Y-48939000D01*
X131268000Y-49035000D01*
X131292000Y-49087000D01*
X131175000Y-49160000D01*
X130951000Y-49238000D01*
X130724000Y-49285000D01*
X130542000Y-49285000D01*
X130574000Y-49202000D01*
X130649000Y-49001000D01*
X130731000Y-48831000D01*
X130843000Y-48864000D01*
G37*
G36*
X129338000Y-48052000D02*
G01*
X129562000Y-48113000D01*
X129793000Y-48206000D01*
X130024000Y-48328000D01*
X130260000Y-48488000D01*
X130421000Y-48643000D01*
X130507000Y-48794000D01*
X130520000Y-48942000D01*
X130457000Y-49110000D01*
X130326000Y-49237000D01*
X130119000Y-49329000D01*
X129828000Y-49390000D01*
X129518000Y-49425000D01*
X129262000Y-49431000D01*
X129052000Y-49407000D01*
X128878000Y-49350000D01*
X128733000Y-49259000D01*
X128605000Y-49132000D01*
X128487000Y-48952000D01*
X128424000Y-48766000D01*
X128414000Y-48581000D01*
X128459000Y-48405000D01*
X128558000Y-48244000D01*
X128726000Y-48103000D01*
X128945000Y-48033000D01*
X129129000Y-48025000D01*
X129338000Y-48052000D01*
G37*
X129338000Y-48052000D02*
X129562000Y-48113000D01*
X129793000Y-48206000D01*
X130024000Y-48328000D01*
X130260000Y-48488000D01*
X130421000Y-48643000D01*
X130507000Y-48794000D01*
X130520000Y-48942000D01*
X130457000Y-49110000D01*
X130326000Y-49237000D01*
X130119000Y-49329000D01*
X129828000Y-49390000D01*
X129518000Y-49425000D01*
X129262000Y-49431000D01*
X129052000Y-49407000D01*
X128878000Y-49350000D01*
X128733000Y-49259000D01*
X128605000Y-49132000D01*
X128487000Y-48952000D01*
X128424000Y-48766000D01*
X128414000Y-48581000D01*
X128459000Y-48405000D01*
X128558000Y-48244000D01*
X128726000Y-48103000D01*
X128945000Y-48033000D01*
X129129000Y-48025000D01*
X129338000Y-48052000D01*
G36*
X129952000Y-46563000D02*
G01*
X130145000Y-46624000D01*
X130281000Y-46697000D01*
X130398000Y-46793000D01*
X130525000Y-46941000D01*
X130689000Y-47167000D01*
X130858000Y-47428000D01*
X130958000Y-47630000D01*
X130996000Y-47797000D01*
X130982000Y-47951000D01*
X130912000Y-48100000D01*
X130788000Y-48194000D01*
X130611000Y-48232000D01*
X130382000Y-48215000D01*
X130101000Y-48142000D01*
X129887000Y-48060000D01*
X129689000Y-47962000D01*
X129511000Y-47851000D01*
X129359000Y-47730000D01*
X129235000Y-47602000D01*
X129146000Y-47471000D01*
X129089000Y-47293000D01*
X129087000Y-47097000D01*
X129137000Y-46910000D01*
X129235000Y-46761000D01*
X129385000Y-46648000D01*
X129561000Y-46576000D01*
X129753000Y-46547000D01*
X129952000Y-46563000D01*
G37*
X129952000Y-46563000D02*
X130145000Y-46624000D01*
X130281000Y-46697000D01*
X130398000Y-46793000D01*
X130525000Y-46941000D01*
X130689000Y-47167000D01*
X130858000Y-47428000D01*
X130958000Y-47630000D01*
X130996000Y-47797000D01*
X130982000Y-47951000D01*
X130912000Y-48100000D01*
X130788000Y-48194000D01*
X130611000Y-48232000D01*
X130382000Y-48215000D01*
X130101000Y-48142000D01*
X129887000Y-48060000D01*
X129689000Y-47962000D01*
X129511000Y-47851000D01*
X129359000Y-47730000D01*
X129235000Y-47602000D01*
X129146000Y-47471000D01*
X129089000Y-47293000D01*
X129087000Y-47097000D01*
X129137000Y-46910000D01*
X129235000Y-46761000D01*
X129385000Y-46648000D01*
X129561000Y-46576000D01*
X129753000Y-46547000D01*
X129952000Y-46563000D01*
G36*
X130365000Y-45941000D02*
G01*
X130503000Y-46126000D01*
X130593000Y-46303000D01*
X130585000Y-46448000D01*
X130439000Y-46425000D01*
X130223000Y-46361000D01*
X130090000Y-46302000D01*
X130113000Y-46159000D01*
X130168000Y-45946000D01*
X130244000Y-45832000D01*
X130365000Y-45941000D01*
G37*
G36*
X127129000Y-45033000D02*
G01*
X127291000Y-45090000D01*
X127454000Y-45187000D01*
X127583000Y-45318000D01*
X127679000Y-45486000D01*
X127744000Y-45694000D01*
X127779000Y-45944000D01*
X127814000Y-46169000D01*
X127890000Y-46339000D01*
X128027000Y-46496000D01*
X128211000Y-46694000D01*
X128299000Y-46867000D01*
X128323000Y-47078000D01*
X128307000Y-47236000D01*
X128243000Y-47408000D01*
X128151000Y-47575000D01*
X128021000Y-47701000D01*
X127867000Y-47802000D01*
X127705000Y-47846000D01*
X127502000Y-47844000D01*
X127287000Y-47832000D01*
X127127000Y-47852000D01*
X126980000Y-47917000D01*
X126806000Y-48037000D01*
X126612000Y-48162000D01*
X126422000Y-48241000D01*
X126235000Y-48275000D01*
X126052000Y-48264000D01*
X125873000Y-48207000D01*
X125724000Y-48124000D01*
X125617000Y-48008000D01*
X125530000Y-47851000D01*
X125482000Y-47672000D01*
X125477000Y-47484000D01*
X125502000Y-47333000D01*
X125553000Y-47184000D01*
X125638000Y-47019000D01*
X125765000Y-46821000D01*
X125886000Y-46637000D01*
X125977000Y-46477000D01*
X126048000Y-46320000D01*
X126110000Y-46145000D01*
X126172000Y-45931000D01*
X126254000Y-45651000D01*
X126328000Y-45476000D01*
X126420000Y-45346000D01*
X126596000Y-45173000D01*
X126775000Y-45070000D01*
X126972000Y-45028000D01*
X127129000Y-45033000D01*
G37*
X127129000Y-45033000D02*
X127291000Y-45090000D01*
X127454000Y-45187000D01*
X127583000Y-45318000D01*
X127679000Y-45486000D01*
X127744000Y-45694000D01*
X127779000Y-45944000D01*
X127814000Y-46169000D01*
X127890000Y-46339000D01*
X128027000Y-46496000D01*
X128211000Y-46694000D01*
X128299000Y-46867000D01*
X128323000Y-47078000D01*
X128307000Y-47236000D01*
X128243000Y-47408000D01*
X128151000Y-47575000D01*
X128021000Y-47701000D01*
X127867000Y-47802000D01*
X127705000Y-47846000D01*
X127502000Y-47844000D01*
X127287000Y-47832000D01*
X127127000Y-47852000D01*
X126980000Y-47917000D01*
X126806000Y-48037000D01*
X126612000Y-48162000D01*
X126422000Y-48241000D01*
X126235000Y-48275000D01*
X126052000Y-48264000D01*
X125873000Y-48207000D01*
X125724000Y-48124000D01*
X125617000Y-48008000D01*
X125530000Y-47851000D01*
X125482000Y-47672000D01*
X125477000Y-47484000D01*
X125502000Y-47333000D01*
X125553000Y-47184000D01*
X125638000Y-47019000D01*
X125765000Y-46821000D01*
X125886000Y-46637000D01*
X125977000Y-46477000D01*
X126048000Y-46320000D01*
X126110000Y-46145000D01*
X126172000Y-45931000D01*
X126254000Y-45651000D01*
X126328000Y-45476000D01*
X126420000Y-45346000D01*
X126596000Y-45173000D01*
X126775000Y-45070000D01*
X126972000Y-45028000D01*
X127129000Y-45033000D01*
G36*
X128768000Y-49591000D02*
G01*
X128961000Y-49718000D01*
X129068000Y-49810000D01*
X128997000Y-49882000D01*
X128792000Y-49941000D01*
X128551000Y-49969000D01*
X128371000Y-49947000D01*
X128409000Y-49811000D01*
X128528000Y-49636000D01*
X128630000Y-49523000D01*
X128768000Y-49591000D01*
G37*
%TD*%
D11*
%TO.C,J23*%
X195000000Y-107500000D03*
X195000000Y-112500000D03*
%TD*%
%TO.C,J22*%
X190000000Y-107500000D03*
X190000000Y-112500000D03*
%TD*%
%TO.C,J21*%
X185000000Y-107500000D03*
X185000000Y-112500000D03*
%TD*%
%TO.C,J20*%
X174142500Y-107500000D03*
X174142500Y-112500000D03*
%TD*%
%TO.C,J15*%
X163142500Y-107500000D03*
X163142500Y-112500000D03*
%TD*%
D12*
%TO.C,C9*%
X157225000Y-66500000D03*
X158775000Y-66500000D03*
%TD*%
D13*
%TO.C,J14*%
X154000000Y-107000000D03*
D14*
X156500000Y-107000000D03*
%TD*%
D15*
%TO.C,J13*%
X136650000Y-58655000D03*
X139190000Y-55345000D03*
X141730000Y-58655000D03*
X144270000Y-55345000D03*
X146810000Y-58655000D03*
X149350000Y-55345000D03*
%TD*%
D16*
%TO.C,U1*%
X130000000Y-61745000D03*
X130000000Y-63015000D03*
X130000000Y-64285000D03*
X130000000Y-65555000D03*
X130000000Y-66825000D03*
X130000000Y-68095000D03*
X130000000Y-69365000D03*
X130000000Y-70635000D03*
X130000000Y-71905000D03*
X130000000Y-73175000D03*
X130000000Y-74445000D03*
X130000000Y-75715000D03*
X130000000Y-76985000D03*
X130000000Y-78255000D03*
D17*
X132785000Y-79255000D03*
X134055000Y-79255000D03*
X135325000Y-79255000D03*
X136595000Y-79255000D03*
X137865000Y-79255000D03*
X139135000Y-79255000D03*
X140405000Y-79255000D03*
X141675000Y-79255000D03*
X142945000Y-79255000D03*
X144215000Y-79255000D03*
D16*
X147000000Y-78255000D03*
X147000000Y-76985000D03*
X147000000Y-75715000D03*
X147000000Y-74445000D03*
X147000000Y-73175000D03*
X147000000Y-71905000D03*
X147000000Y-70635000D03*
X147000000Y-69365000D03*
X147000000Y-68095000D03*
X147000000Y-66825000D03*
X147000000Y-65555000D03*
X147000000Y-64285000D03*
X147000000Y-63015000D03*
X147000000Y-61745000D03*
D18*
X137500000Y-69245000D03*
%TD*%
D19*
%TO.C,FB1*%
X141000000Y-89825000D03*
X141000000Y-88175000D03*
%TD*%
D20*
%TO.C,J8*%
X152500000Y-49000000D03*
X150000000Y-49000000D03*
X147500000Y-49000000D03*
X145000000Y-49000000D03*
X142500000Y-49000000D03*
X140000000Y-49000000D03*
X137500000Y-49000000D03*
D21*
X135000000Y-49000000D03*
%TD*%
D19*
%TO.C,R18*%
X147000000Y-82825000D03*
X147000000Y-81175000D03*
%TD*%
D20*
%TO.C,J5*%
X179000000Y-49000000D03*
X176500000Y-49000000D03*
X174000000Y-49000000D03*
D21*
X171500000Y-49000000D03*
%TD*%
D20*
%TO.C,J4*%
X179000000Y-40000000D03*
X176500000Y-40000000D03*
X174000000Y-40000000D03*
D21*
X171500000Y-40000000D03*
%TD*%
D22*
%TO.C,DRL3*%
X200000000Y-41000000D03*
%TD*%
%TO.C,DRL2*%
X128000000Y-41000000D03*
%TD*%
%TO.C,DRL1*%
X128000000Y-113000000D03*
%TD*%
%TO.C,DRL4*%
X200000000Y-113000000D03*
%TD*%
D13*
%TO.C,J3*%
X162500000Y-49000000D03*
D14*
X165000000Y-49000000D03*
%TD*%
D23*
%TO.C,R16*%
X178000000Y-98000000D03*
D24*
X183080000Y-98000000D03*
%TD*%
D25*
%TO.C,R8*%
X170175000Y-54000000D03*
X171825000Y-54000000D03*
%TD*%
D26*
%TO.C,C3*%
X158275000Y-40500000D03*
X156725000Y-40500000D03*
%TD*%
D20*
%TO.C,J9*%
X152500000Y-40000000D03*
X150000000Y-40000000D03*
X147500000Y-40000000D03*
X145000000Y-40000000D03*
X142500000Y-40000000D03*
X140000000Y-40000000D03*
X137500000Y-40000000D03*
D21*
X135000000Y-40000000D03*
%TD*%
D27*
%TO.C,R22*%
X165500000Y-92317500D03*
X165500000Y-94142500D03*
%TD*%
D13*
%TO.C,J1*%
X162500000Y-40000000D03*
D14*
X165000000Y-40000000D03*
%TD*%
%TO.C,J10*%
X183000000Y-58000000D03*
D13*
X180500000Y-58000000D03*
%TD*%
D14*
%TO.C,J19*%
X165000000Y-58000000D03*
D13*
X162500000Y-58000000D03*
%TD*%
D28*
%TO.C,U4*%
X153700000Y-91420000D03*
X153700000Y-93960000D03*
X153700000Y-96500000D03*
X153700000Y-99040000D03*
X162300000Y-99040000D03*
X162300000Y-96500000D03*
X162300000Y-91420000D03*
%TD*%
D27*
%TO.C,C7*%
X165500000Y-84817500D03*
X165500000Y-86642500D03*
%TD*%
D13*
%TO.C,J12*%
X189500000Y-58000000D03*
D14*
X192000000Y-58000000D03*
%TD*%
D29*
%TO.C,D1*%
X164000000Y-72650000D03*
X164000000Y-68350000D03*
%TD*%
D30*
%TO.C,J17*%
X163142500Y-110000000D03*
D11*
X168142500Y-110000000D03*
%TD*%
D31*
%TO.C,R7*%
X199825000Y-47000000D03*
X198175000Y-47000000D03*
%TD*%
D19*
%TO.C,R15*%
X151000000Y-93650000D03*
X151000000Y-92000000D03*
%TD*%
D20*
%TO.C,J6*%
X193000000Y-40000000D03*
X190500000Y-40000000D03*
X188000000Y-40000000D03*
D21*
X185500000Y-40000000D03*
%TD*%
D12*
%TO.C,C2*%
X179225000Y-54000000D03*
X180775000Y-54000000D03*
%TD*%
D25*
%TO.C,R11*%
X170175000Y-45000000D03*
X171825000Y-45000000D03*
%TD*%
D32*
%TO.C,F1*%
X187000000Y-98000000D03*
X195500000Y-98000000D03*
%TD*%
D33*
%TO.C,U2*%
X189750000Y-67000000D03*
X189750000Y-71000000D03*
X189750000Y-79000000D03*
X189750000Y-83000000D03*
X189750000Y-87000000D03*
X189750000Y-91000000D03*
%TD*%
D34*
%TO.C,R17*%
X126500000Y-65175000D03*
X126500000Y-66825000D03*
%TD*%
D25*
%TO.C,R4*%
X158325000Y-44500000D03*
X156675000Y-44500000D03*
%TD*%
D27*
%TO.C,R23*%
X165500000Y-80817500D03*
X165500000Y-82642500D03*
%TD*%
D25*
%TO.C,R1*%
X199825000Y-53000000D03*
X198175000Y-53000000D03*
%TD*%
D35*
%TO.C,C13*%
X158500000Y-72000000D03*
D36*
X158500000Y-69500000D03*
%TD*%
D27*
%TO.C,C6*%
X165500000Y-96230000D03*
X165500000Y-98055000D03*
%TD*%
D25*
%TO.C,R2*%
X156675000Y-39000000D03*
X158325000Y-39000000D03*
%TD*%
D37*
%TO.C,L2*%
X170000000Y-73000000D03*
X170000000Y-67500000D03*
%TD*%
D38*
%TO.C,Q1*%
X157375000Y-60950000D03*
X155500000Y-61900000D03*
X155500000Y-60000000D03*
%TD*%
D28*
%TO.C,U3*%
X153700000Y-79920000D03*
X153700000Y-82460000D03*
X153700000Y-85000000D03*
X153700000Y-87540000D03*
X162300000Y-87540000D03*
X162300000Y-85000000D03*
X162300000Y-79920000D03*
%TD*%
D39*
%TO.C,C14*%
X178000000Y-83867677D03*
D40*
X178000000Y-78867677D03*
%TD*%
%TO.C,L1*%
X175000000Y-88000000D03*
X175000000Y-92000000D03*
%TD*%
D26*
%TO.C,C5*%
X158275000Y-46000000D03*
X156725000Y-46000000D03*
%TD*%
D25*
%TO.C,R9*%
X156675000Y-47500000D03*
X158325000Y-47500000D03*
%TD*%
D31*
%TO.C,R26*%
X157850000Y-58500000D03*
X159500000Y-58500000D03*
%TD*%
%TO.C,R5*%
X199825000Y-50000000D03*
X198175000Y-50000000D03*
%TD*%
%TO.C,R13*%
X154825000Y-75000000D03*
X153175000Y-75000000D03*
%TD*%
%TO.C,R6*%
X198175000Y-48500000D03*
X199825000Y-48500000D03*
%TD*%
D36*
%TO.C,C12*%
X185000000Y-91500000D03*
X185000000Y-86500000D03*
%TD*%
%TO.C,C8*%
X178250000Y-71000000D03*
D35*
X178250000Y-67500000D03*
%TD*%
D12*
%TO.C,C1*%
X179725000Y-45000000D03*
X181275000Y-45000000D03*
%TD*%
D25*
%TO.C,R10*%
X158325000Y-53000000D03*
X156675000Y-53000000D03*
%TD*%
D36*
%TO.C,C10*%
X184750000Y-72500000D03*
X184750000Y-77500000D03*
%TD*%
D25*
%TO.C,R3*%
X158325000Y-50000000D03*
X156675000Y-50000000D03*
%TD*%
D14*
%TO.C,J2*%
X174000000Y-58000000D03*
D13*
X171500000Y-58000000D03*
%TD*%
D26*
%TO.C,C4*%
X156725000Y-51500000D03*
X158275000Y-51500000D03*
%TD*%
D36*
%TO.C,RV1*%
X177500000Y-94000000D03*
X182500000Y-94000000D03*
%TD*%
D30*
%TO.C,J16*%
X185000000Y-110000000D03*
D11*
X190000000Y-110000000D03*
X195000000Y-110000000D03*
%TD*%
D30*
%TO.C,J18*%
X174142500Y-110000000D03*
D11*
X179142500Y-110000000D03*
%TD*%
D25*
%TO.C,R12*%
X156675000Y-42000000D03*
X158325000Y-42000000D03*
%TD*%
D41*
%TO.C,J11*%
X128380000Y-86000000D03*
D42*
X130920000Y-86000000D03*
X133460000Y-86000000D03*
X136000000Y-86000000D03*
X138540000Y-86000000D03*
X141080000Y-86000000D03*
X143620000Y-86000000D03*
X146160000Y-86000000D03*
%TD*%
D20*
%TO.C,J7*%
X193000000Y-49000000D03*
X190500000Y-49000000D03*
X188000000Y-49000000D03*
D21*
X185500000Y-49000000D03*
%TD*%
D31*
%TO.C,R14*%
X154825000Y-77000000D03*
X153175000Y-77000000D03*
%TD*%
M02*
