M48
INCH,TZ
T1C0.0157
T2C0.0315
T3C0.0374
T4C0.0394
T5C0.0472
T6C0.0551
T7C0.0591
T8C0.1260
%
G90
G05
T1
X49213Y-19685
X49213Y-32480
X49213Y-39173
X49390Y-26949
X49843Y-27309
X50000Y-28346
X50000Y-29134
X50197Y-29724
X50293Y-30809
X50395Y-24821
X50415Y-25466
X51181Y-23622
X51772Y-19685
X51872Y-26809
X51969Y-30315
X51969Y-32087
X52756Y-28740
X53150Y-17717
X53346Y-28150
X53346Y-29331
X53543Y-24213
X53543Y-24803
X53543Y-25591
X53543Y-30315
X54134Y-27262
X54134Y-32480
X54799Y-22957
X54921Y-26181
X54921Y-28150
X54921Y-30315
X55512Y-36024
X55512Y-45472
X55709Y-21260
X56274Y-30340
X56778Y-32087
X56890Y-26772
X56890Y-29528
X57087Y-16535
X57874Y-21260
X58661Y-36024
X58858Y-32087
X58957Y-30020
X59055Y-23031
X59432Y-25771
X59449Y-21909
X59449Y-24762
X59449Y-32677
X59843Y-29528
X59889Y-20958
X60039Y-25197
X60406Y-20642
X60433Y-40157
X60630Y-23622
X60630Y-24351
X60768Y-21004
X61417Y-31693
X61614Y-14961
X61614Y-26575
X61778Y-22404
X62656Y-17054
X62769Y-19198
X62992Y-26181
X63189Y-20276
X65035Y-31465
X65035Y-35992
X66142Y-15748
X66339Y-18307
X69882Y-22835
X71654Y-15748
X71654Y-18307
X74409Y-25197
X77165Y-15748
X79724Y-19488
X79724Y-25197
T2
X62402Y-27362
X62402Y-28346
X69882Y-37008
X70177Y-26575
X70177Y-27953
X71850Y-37008
X72736Y-28543
X72736Y-30512
X72835Y-34055
X72835Y-36024
T3
X53150Y-15748
X53150Y-19291
X54134Y-15748
X54134Y-19291
X55118Y-15748
X55118Y-19291
X56102Y-15748
X56102Y-19291
X57087Y-15748
X57087Y-19291
X58071Y-15748
X58071Y-19291
X59055Y-15748
X59055Y-19291
X60039Y-15748
X60039Y-19291
X67520Y-15748
X67520Y-19291
X68504Y-15748
X68504Y-19291
X69488Y-15748
X69488Y-19291
X70472Y-15748
X70472Y-19291
X73031Y-15748
X73031Y-19291
X74016Y-15748
X74016Y-19291
X75000Y-15748
X75000Y-19291
X75984Y-15748
X75984Y-19291
T4
X50543Y-33858
X51543Y-33858
X52543Y-33858
X53543Y-33858
X54543Y-33858
X55543Y-33858
X56543Y-33858
X57543Y-33858
X60630Y-42126
X61614Y-42126
X63976Y-15748
X63976Y-19291
X63976Y-22835
X64961Y-15748
X64961Y-19291
X64961Y-22835
X67520Y-22835
X68504Y-22835
X68898Y-34646
X68898Y-36220
X70079Y-31050
X70079Y-33019
X71063Y-22835
X72047Y-22835
X74606Y-22835
X75591Y-22835
T5
X70079Y-38583
X72079Y-38583
T7
X64229Y-42323
X64229Y-43307
X64229Y-44291
X66198Y-43307
X68560Y-42323
X68560Y-43307
X68560Y-44291
X70529Y-43307
X72835Y-42323
X72835Y-43307
X72835Y-44291
X74803Y-42323
X74803Y-43307
X74803Y-44291
X76772Y-42323
X76772Y-43307
X76772Y-44291
T8
X50394Y-16142
X50394Y-44488
X78740Y-16142
X78740Y-44488
T6
G00X74705Y-26496
M15
G01X74705Y-26260
M16
G05
G00X74705Y-28071
M15
G01X74705Y-27835
M16
G05
G00X74705Y-31220
M15
G01X74705Y-30984
M16
G05
G00X74705Y-32795
M15
G01X74705Y-32559
M16
G05
G00X74705Y-34370
M15
G01X74705Y-34134
M16
G05
G00X74705Y-35945
M15
G01X74705Y-35709
M16
G05
T0
M30
